<?xml version="1.0" encoding="utf-8" ?>
<svg xmlns="http://www.w3.org/2000/svg" xmlns:xlink="http://www.w3.org/1999/xlink" width="14" height="13">
	<defs>
		<clipPath id="clip_0">
			<rect x="-780" y="-200" width="1024" height="1328" clip-rule="evenodd"/>
		</clipPath>
	</defs>
	<g clip-path="url(#clip_0)">
		<path fill="rgb(210,213,214)" stroke="none" transform="matrix(1.19249e-08 1 -1 1.19249e-08 13.3334 0)" d="M13 9.43333L13 8.13333L7.52632 4.88333L7.52632 1.30833C7.52632 0.768833 7.06789 0.333333 6.5 0.333333C5.93211 0.333333 5.47368 0.768833 5.47368 1.30833L5.47368 4.88333L0 8.13333L0 9.43333L5.47368 7.80833L5.47368 11.3833L4.10526 12.3583L4.10526 13.3333L6.5 12.6833L8.89474 13.3333L8.89474 12.3583L7.52632 11.3833L7.52632 7.80833L13 9.43333L13 8.13333L7.52632 4.88333L7.52632 1.30833C7.52632 0.768833 7.06789 0.333333 6.5 0.333333C5.93211 0.333333 5.47368 0.768833 5.47368 1.30833L5.47368 4.88333L0 8.13333L0 9.43333L5.47368 7.80833L5.47368 11.3833L4.10526 12.3583L4.10526 13.3333L6.5 12.6833L8.89474 13.3333L8.89474 12.3583L7.52632 11.3833L7.52632 7.80833L13 9.43333Z"/>
	</g>

</svg>